<svg version="1.2" xmlns="http://www.w3.org/2000/svg" viewBox="0 0 500 500" width="16" height="16"><path fill-rule="evenodd" d="M250.4 14 486 249.4 250.6 485 15 249.5z" style="fill:red;stroke:#000;stroke-miterlimit:0;stroke-width:20px"/><path d="M151.7 173.3h-42.2v17.8l12.8.9-5.7 97.7c-.2 3.3-2.3 5.4-5.2 5.7l-7.6.6v17h49.6v-17.9l-13.7-.6 4.2-77.9h.4l32 83h19.9l32.4-83.9h.4l4 74.2c.2 4-2.1 5.2-5.5 5.5l-7.5.6v17h50.6v-17.9l-13-.6-5.3-96.2c-.2-5.7 2.3-6.9 6.1-7.4l7-.6v-17h-41.6l-36 95h-.4zm131.3 0v17.8l12 .6v97.7c0 4.2-2.5 5.5-6.1 5.9l-6.9.6V313h59c34.9 0 53.8-14.5 53.8-41.8 0-18.5-10.7-29.5-26.5-33.5 11.4-5.8 19.3-15.5 19.3-29.4 0-27.9-21.6-35-45.3-35zm37.6 76h20.8c16.6 0 26.2 7.6 26.2 21.6 0 12.9-6.7 22.3-27.3 22.3h-19.7zm0-56.7h17c13.6 0 23.9 3.3 23.9 18.5 0 11.1-7.3 19.5-25.4 19.5h-15.5z"/></svg>